<svg width="109" height="109" viewBox="0 0 109 109" fill="none" xmlns="http://www.w3.org/2000/svg">
<path d="M17.3376 81.6514L50.9738 101.16C53.3387 102.53 55.7036 102.53 58.0685 101.16L91.662 81.6514C93.628 80.5144 95.1167 79.2022 96.1283 77.7149C97.1399 76.2279 97.6457 73.9242 97.6457 70.8038V36.162C97.6457 33.8875 97.2254 31.9994 96.3848 30.4977C95.5442 28.9959 94.2264 27.7202 92.4314 26.6704L62.1715 9.08697C59.6071 7.57066 57.057 6.8125 54.5212 6.8125C51.9853 6.8125 49.4209 7.57066 46.828 9.08697L16.611 26.6704C14.7874 27.7202 13.4554 28.9959 12.6148 30.4977C11.7743 31.9994 11.354 33.8875 11.354 36.162V70.8038C11.354 73.9242 11.8669 76.2279 12.8926 77.7149C13.9184 79.2022 15.4 80.5144 17.3376 81.6514ZM21.1841 75.8781C19.9305 75.1781 19.0614 74.4198 18.577 73.6032C18.0927 72.7868 17.8505 71.7808 17.8505 70.5853V37.5616L51.1448 57.0261V93.3299L21.1841 75.8781ZM87.8584 75.8781L57.8549 93.3299V57.0261L91.1491 37.5616V70.5853C91.1491 71.7808 90.9069 72.7868 90.4226 73.6032C89.9383 74.4198 89.0835 75.1781 87.8584 75.8781ZM54.5212 50.9024L21.5261 31.788L49.6916 15.3418C52.9398 13.4464 56.1596 13.4464 59.3508 15.3418L87.5161 31.788L54.5212 50.9024Z" fill="#D9D9D9"/>
</svg>
