<svg width="97" height="97" viewBox="0 0 97 97" fill="none" xmlns="http://www.w3.org/2000/svg">
<path fill-rule="evenodd" clip-rule="evenodd" d="M33.2313 24.2501C26.7828 24.2501 21.5554 29.4776 21.5554 35.926C21.5554 42.3744 26.7829 47.6019 33.2314 47.6019C39.6798 47.6019 44.9072 42.3745 44.9072 35.926C44.9072 29.4776 39.6797 24.2501 33.2313 24.2501ZM46.3402 50.711C50.4197 47.0912 52.9905 41.8089 52.9905 35.926C52.9905 25.0133 44.144 16.1667 33.2313 16.1667C22.3185 16.1667 13.472 25.0133 13.472 35.926C13.472 41.8089 16.0429 47.0913 20.1225 50.711C17.363 52.0979 14.8159 53.9265 12.591 56.1514C11.6044 57.1381 10.6954 58.1883 9.86838 59.2925C8.01476 61.7672 7.1419 64.5254 7.2956 67.3088C7.44694 70.0495 8.57427 72.5032 10.1859 74.4841C13.3574 78.3823 18.6751 80.8334 24.2499 80.8334H42.2129C47.7877 80.8334 53.1054 78.3823 56.2768 74.4841C57.8885 72.5032 59.0158 70.0495 59.1671 67.3088C59.3208 64.5254 58.448 61.7672 56.5943 59.2925C55.7673 58.1883 54.8584 57.1381 53.8717 56.1514C51.6468 53.9265 49.0997 52.0979 46.3402 50.711ZM33.2314 55.6852C27.6336 55.6852 22.2651 57.909 18.3068 61.8672C17.5931 62.5809 16.9359 63.3403 16.3381 64.1385C15.5153 65.2369 15.3272 66.1498 15.3666 66.8631C15.4084 67.6192 15.7282 68.4879 16.4562 69.3827C17.9641 71.2362 20.8961 72.7501 24.2499 72.7501L42.2129 72.7501C45.5667 72.7501 48.4986 71.2362 50.0065 69.3828C50.7346 68.4879 51.0543 67.6192 51.0961 66.8631C51.1355 66.1498 50.9474 65.2369 50.1247 64.1385C49.5268 63.3403 48.8696 62.5809 48.1559 61.8672C44.1977 57.909 38.8292 55.6852 33.2314 55.6852ZM74.7707 32.3334C77.0029 32.3334 78.8124 34.1429 78.8124 36.3751V42.4376H84.8749C87.107 42.4376 88.9165 44.2471 88.9165 46.4792C88.9165 48.7114 87.107 50.5209 84.8749 50.5209H78.8124V56.5834C78.8124 58.8156 77.0029 60.6251 74.7707 60.6251C72.5386 60.6251 70.729 58.8156 70.729 56.5834V50.5209H64.6665C62.4344 50.5209 60.6249 48.7114 60.6249 46.4792C60.6249 44.2471 62.4344 42.4376 64.6665 42.4376H70.729V36.3751C70.729 34.1429 72.5386 32.3334 74.7707 32.3334Z" fill="#D9D9D9"/>
</svg>
