<svg width="96" height="96" viewBox="0 0 96 96" fill="none" xmlns="http://www.w3.org/2000/svg">
<path d="M48 72V60" stroke="#D9D9D9" stroke-width="7.375" stroke-linecap="round"/>
<path d="M9.40556 52.854C7.99348 43.6648 7.28744 39.0705 9.02468 34.9975C10.7619 30.9245 14.6161 28.1377 22.3246 22.5642L28.084 18.4C37.6732 11.4667 42.4679 8 47.9999 8C53.5323 8 58.3267 11.4667 67.9159 18.4L73.6755 22.5642C81.3839 28.1377 85.2383 30.9245 86.9755 34.9975C88.7127 39.0705 88.0067 43.6648 86.5943 52.854L85.3903 60.6896C83.3887 73.7156 82.3875 80.2288 77.7159 84.1144C73.0443 88 66.2147 88 52.5551 88H43.4447C29.7854 88 22.9556 88 18.284 84.1144C13.6124 80.2288 12.6115 73.7156 10.6097 60.6896L9.40556 52.854Z" stroke="#D9D9D9" stroke-width="7.375" stroke-linejoin="round"/>
</svg>
