<svg width="86" height="86" viewBox="0 0 86 86" fill="none" xmlns="http://www.w3.org/2000/svg">
<path d="M56.3384 23.4622C53.553 17.1801 53.2122 11.7581 57.7838 5.92593C60.4992 2.46142 64.3515 0.554438 68.6791 0.0198907C69.9233 -0.0161498 71.1777 -0.0175851 72.414 0.140398C80.998 1.2374 87.0022 9.38326 85.8609 17.8634C84.9771 24.4286 78.0149 33.8876 74.2608 39.4111C71.3794 43.6509 71.2743 46.2668 67.6705 41.2788C66.7586 40.0166 65.8461 38.7549 64.9684 37.4688C62.506 33.7337 59.7836 30.2623 57.6939 26.2694L48.5909 26.2702C47.3998 26.2712 45.5442 26.3924 44.4495 26.2452C43.2871 26.0892 42.4483 24.8493 43.4382 23.8717C44.3156 23.005 46.7533 23.4651 47.8616 23.4648L56.3384 23.4622ZM69.0132 2.94727C62.1186 3.7635 56.365 9.91696 57.2626 16.943C57.9471 22.3007 66.2499 35.0555 70.4131 40.0147L70.7941 39.3609C75.4396 32.4643 84.4155 21.2647 82.8384 13.0763C81.5455 6.36182 75.5562 2.73544 69.0132 2.94727Z" fill="#D9D9D9"/>
<path d="M70.8851 21.9867C60.5048 22.4727 60.7216 9.46789 69.4902 9.05901C77.958 8.04102 80.3829 20.5121 70.8851 21.9867ZM69.4902 11.4295C63.5632 12.4967 64.5883 20.2119 70.8851 19.5471C76.6428 18.2694 74.9872 10.7732 69.4902 11.4295Z" fill="#D9D9D9"/>
<path d="M38.4065 28C35.526 27.9316 37.647 25.4336 39.6386 25C42.5288 25.1235 40.1877 27.741 38.4065 28Z" fill="#D9D9D9"/>
<path d="M37.0156 34.9999C34.8387 35.0258 34.2326 30.7325 36.1574 30.0044C37.5257 29.9212 37.4077 31.021 37.651 32.0868C37.9511 33.4024 38.4921 34.4024 37.0156 34.9999Z" fill="#D9D9D9"/>
<path d="M42.9024 36.9986C41.1724 37.0618 38.4568 34.9803 41.1096 34C42.9226 34.2463 45.4921 36.0831 42.9024 36.9986Z" fill="#D9D9D9"/>
<path d="M19.915 83.6829C19.2959 84.6408 18.1919 86.9231 16.7901 85.595C16.0099 84.8556 14.7564 82.593 14.0434 81.5563C10.2055 75.976 0.165894 61.2589 0.0051375 54.4534C-0.219439 44.9473 6.94342 36.3088 16.6355 36.1087C27.3749 34.7225 37.7089 46.8641 35.0583 57.2938C39.9544 56.4337 38.1548 60.9377 33.9233 59.8357C33.5092 61.2274 32.7655 62.5768 32.1197 63.8746C28.6776 70.7894 24.2485 77.3123 19.915 83.6829ZM16.9874 38.9683C8.49037 39.3533 2.47367 46.6122 2.90981 54.9679C3.19636 60.4539 14.5491 77.2054 17.6886 81.7066L18.1177 81.0615C22.8587 74.2331 27.9714 66.538 31.2065 58.8723C32.4215 55.9938 32.8424 54.9332 32.2732 51.7781C30.953 44.4607 24.6505 38.4992 16.9874 38.9683Z" fill="#D9D9D9"/>
<path d="M49.1817 39.9928C47.2876 40.1518 44.4494 37.6499 47.0392 36C48.6968 36.1325 51.3544 38.0746 49.1817 39.9928Z" fill="#D9D9D9"/>
<path d="M54.0493 41.9791C52.4319 42.2398 49.5072 39.9954 51.9146 39.037C53.6372 38.6974 56.5003 40.7767 54.0493 41.9791Z" fill="#D9D9D9"/>
<path d="M60.0625 44.9771C58.7842 45.2706 55.2986 42.6739 58.0011 41.0004C59.6392 40.9628 62.4838 43.5394 60.0625 44.9771Z" fill="#D9D9D9"/>
<path d="M19.1529 61.9355C8.2148 63.1264 6.55814 47.443 17.0275 46.078C19.0054 45.7686 21.1559 46.4034 22.7435 47.5653C28.519 51.7921 26.1744 60.9522 19.1529 61.9355ZM17.3853 48.5048C9.54221 49.6266 11.5022 60.4424 18.8087 59.634C26.381 58.238 24.2424 47.4823 17.3853 48.5048Z" fill="#D9D9D9"/>
<path d="M63.5759 49.9842C60.5575 50.268 60.1702 46.6526 62.5281 46.001C65.1178 45.9338 65.9989 49.2565 63.5759 49.9842Z" fill="#D9D9D9"/>
<path d="M26.7874 80.9995C25.4836 81.024 24.5268 80.146 25.2474 78.8962C25.9345 77.7046 32.6824 77.1943 34.3306 76.9587L60.7565 73.0635C66.573 72.2433 71.6601 70.3982 72.1663 63.1378C72.2941 61.3045 71.8319 59.3356 71.5784 57.5205L70.5006 49.6633C70.3 48.2085 69.7046 46.4195 71.5745 46C73.5903 46.0988 73.3374 49.4504 73.5665 51.0772L74.7802 59.6068C75.3359 63.7017 74.941 67.1254 72.3949 70.5097C69.1565 74.8144 65.585 75.3609 60.6822 76.0379L54.6353 76.8985C45.3615 78.3033 36.0811 79.7374 26.7874 80.9995Z" fill="#D9D9D9"/>
<path d="M59.4818 55C56.516 54.6634 58.5883 51.5936 60.6069 51.0001C63.0463 50.9794 62.0348 54.0624 59.4818 55Z" fill="#D9D9D9"/>
<path d="M53.3563 57C52.2454 56.7847 51.5328 55.7097 52.3587 54.8077C53.0132 54.0934 54.7431 54.1064 55.7038 54C56.4645 54.1041 56.9069 54.6556 56.9908 55.336C57.1786 56.863 54.4394 56.8989 53.3563 57Z" fill="#D9D9D9"/>
<path d="M48.0169 57.9819L47.8493 57.9956C46.3665 58.1277 43.9791 55.2548 49.2247 55.0451C50.4539 54.6162 53.0582 57.3704 48.0169 57.9819Z" fill="#D9D9D9"/>
<path d="M41.8164 58.9771C40.2914 59.2671 38.372 56.7168 42.4177 56.0255C43.8198 55.7932 44.4422 57.1919 43.6553 58.4022C43.0912 58.7445 42.4369 58.8405 41.8164 58.9771Z" fill="#D9D9D9"/>
</svg>
