<svg width="109" height="77" viewBox="0 0 109 77" fill="none" xmlns="http://www.w3.org/2000/svg">
<path d="M59.7966 27.6517C59.2159 27.6517 58.6353 27.5065 58.0546 27.2162C57.4893 26.9259 56.901 26.5745 56.2898 26.1619C55.6786 25.7493 55.0292 25.3444 54.3416 24.9471C53.654 24.5499 52.89 24.2366 52.0496 24.0074L64.3577 7.8946C65.3814 6.54995 66.5351 5.65607 67.8186 5.21295C69.1174 4.76983 70.4086 4.77747 71.6921 5.23587C72.9909 5.67899 74.1445 6.56523 75.153 7.8946L87.4611 24.0074C86.6207 24.2366 85.8567 24.5499 85.1691 24.9471C84.4815 25.3444 83.8321 25.7493 83.2209 26.1619C82.625 26.5745 82.0367 26.9259 81.456 27.2162C80.8907 27.5065 80.31 27.6517 79.7141 27.6517C78.9959 27.6517 78.2854 27.4454 77.5825 27.0329C76.8949 26.6203 76.1691 26.1543 75.4051 25.6347C74.6564 25.0999 73.816 24.6339 72.8839 24.2366C71.9671 23.8241 70.9281 23.6178 69.7668 23.6178C68.6055 23.6178 67.5665 23.8241 66.6497 24.2366C65.7329 24.6339 64.8925 25.0999 64.1285 25.6347C63.3797 26.1543 62.6539 26.6203 61.951 27.0329C61.2482 27.4454 60.53 27.6517 59.7966 27.6517ZM38.0454 56.8977C36.6702 56.8977 35.5471 56.6074 34.6762 56.0268C33.8205 55.4461 33.2093 54.6974 32.8425 53.7806C32.4911 52.8638 32.3994 51.8782 32.5675 50.8239C32.7356 49.7849 33.1711 48.8069 33.8739 47.8901L49.0012 28.0413C49.261 27.8733 49.5054 27.751 49.7346 27.6746C49.9791 27.5829 50.2312 27.5371 50.491 27.5371C51.0258 27.5371 51.5835 27.7281 52.1642 28.1101C52.7601 28.4921 53.4095 28.9352 54.1124 29.4395C54.8305 29.9284 55.6557 30.3639 56.5877 30.7459C57.5198 31.1279 58.5894 31.3189 59.7966 31.3189C61.0801 31.3189 62.1879 31.1203 63.12 30.723C64.0521 30.3104 64.8848 29.8368 65.6183 29.302C66.367 28.7672 67.0622 28.3011 67.704 27.9038C68.361 27.5065 69.0486 27.3079 69.7668 27.3079C70.485 27.3079 71.1726 27.5065 71.8296 27.9038C72.4866 28.3011 73.1819 28.7672 73.9153 29.302C74.6488 29.8368 75.4815 30.3104 76.4136 30.723C77.3457 31.1203 78.4459 31.3189 79.7141 31.3189C80.8907 31.3189 81.9144 31.1508 82.7854 30.8147C83.6716 30.4632 84.4509 30.0583 85.1232 29.5999C85.8108 29.1262 86.445 28.6984 87.0256 28.3164C87.6063 27.9191 88.1793 27.667 88.7446 27.56C88.9433 27.56 89.1343 27.5982 89.3176 27.6746C89.5163 27.7357 89.7225 27.8198 89.9365 27.9267C90.1504 28.0184 90.3872 28.1101 90.647 28.2018L105.637 47.8672C106.34 48.784 106.775 49.7619 106.943 50.801C107.111 51.8553 107.012 52.8409 106.645 53.7577C106.294 54.6898 105.683 55.4461 104.812 56.0268C103.956 56.6074 102.848 56.8977 101.488 56.8977H38.0454ZM23.1015 34.7569C22.6126 34.7569 22.1389 34.65 21.6805 34.436C21.2373 34.2068 20.7789 33.9394 20.3053 33.6338C19.8316 33.313 19.3197 33.0074 18.7696 32.717C18.2195 32.4114 17.6083 32.1822 16.936 32.0294L26.3791 20.2256C27.4334 18.9115 28.5871 18.0329 29.84 17.5898C31.1083 17.1314 32.3689 17.1238 33.6218 17.5669C34.8748 18.01 36.0284 18.8962 37.0828 20.2256L43.7525 28.5456L39.9248 33.5422C39.7109 33.695 39.5123 33.8096 39.3289 33.886C39.1456 33.9624 38.9546 34.0006 38.7559 34.0006C38.4045 34.0006 38.0072 33.863 37.5641 33.588C37.121 33.313 36.6091 32.9997 36.0284 32.6483C35.4478 32.2968 34.806 31.9836 34.1031 31.7086C33.4003 31.4335 32.6133 31.296 31.7424 31.296C30.7339 31.296 29.8324 31.4717 29.0378 31.8232C28.2432 32.1746 27.5174 32.5795 26.8604 33.0379C26.2034 33.481 25.5692 33.8783 24.958 34.2298C24.3468 34.5812 23.728 34.7569 23.1015 34.7569ZM8.22638 56.8977C6.9123 56.8977 5.82741 56.6074 4.97173 56.0268C4.11605 55.4461 3.51249 54.6974 3.16104 53.7806C2.82488 52.8638 2.74848 51.8706 2.93184 50.801C3.13048 49.7467 3.61945 48.7305 4.39873 47.7526L13.773 36.0405C14.1245 35.7349 14.4606 35.5057 14.7815 35.3529C15.1024 35.2001 15.4309 35.1237 15.7671 35.1237C16.2713 35.1237 16.7527 35.2688 17.2111 35.5591C17.6847 35.8342 18.1966 36.1627 18.7467 36.5447C19.2968 36.9267 19.9156 37.2629 20.6032 37.5532C21.3061 37.8282 22.1389 37.9657 23.1015 37.9657C24.2017 37.9657 25.1567 37.79 25.9665 37.4386C26.7916 37.0871 27.5174 36.6899 28.1439 36.2467C28.7857 35.7883 29.3893 35.3834 29.9546 35.032C30.5353 34.6805 31.1312 34.5048 31.7424 34.5048C32.1702 34.5048 32.5599 34.5812 32.9113 34.734C33.278 34.8715 33.6218 35.0473 33.9427 35.2612C34.2636 35.4751 34.5998 35.689 34.9512 35.9029C35.3026 36.1169 35.677 36.3079 36.0743 36.4759C36.4868 36.644 36.9452 36.751 37.4495 36.7968L30.8027 45.5752C29.8859 46.7823 29.2594 48.0582 28.9232 49.4029C28.5871 50.7628 28.5259 52.0845 28.7399 53.368C28.9538 54.6668 29.4275 55.8434 30.1609 56.8977H8.22638Z" fill="#D9D9D9"/>
</svg>
