<svg width="111" height="111" viewBox="0 0 111 111" fill="none" xmlns="http://www.w3.org/2000/svg">
<path fill-rule="evenodd" clip-rule="evenodd" d="M55.5002 18.5C45.2829 18.5 37.0002 26.7827 37.0002 37C37.0002 47.2173 45.2829 55.5 55.5002 55.5C65.7174 55.5 74.0002 47.2173 74.0002 37C74.0002 26.7827 65.7174 18.5 55.5002 18.5ZM72.3397 59.0584C78.972 53.9876 83.2502 45.9934 83.2502 37C83.2502 21.6741 70.8261 9.25 55.5002 9.25C40.1743 9.25 27.7502 21.6741 27.7502 37C27.7502 45.9934 32.0283 53.9876 38.6606 59.0584C34.0103 61.1155 29.732 64.0265 26.0668 67.6917C23.2367 70.5219 20.8559 73.718 18.9709 77.1686C15.4923 83.5364 16.9109 90.029 20.8284 94.62C24.5996 99.0397 30.6409 101.75 37.0002 101.75H74.0002C80.3594 101.75 86.4007 99.0397 90.172 94.62C94.0894 90.029 95.508 83.5364 92.0295 77.1686C90.1444 73.718 87.7637 70.5219 84.9335 67.6917C81.2683 64.0265 76.9901 61.1155 72.3397 59.0584ZM55.5002 64.75C46.9138 64.75 38.6791 68.1609 32.6076 74.2324C30.4061 76.4339 28.5546 78.9195 27.0886 81.6032C25.6689 84.202 26.1269 86.579 27.8649 88.6159C29.7491 90.8241 33.1422 92.5 37.0002 92.5H74.0002C77.8582 92.5 81.2512 90.8241 83.1354 88.6159C84.8735 86.579 85.3315 84.202 83.9117 81.6032C82.4457 78.9195 80.5943 76.4339 78.3927 74.2324C72.3213 68.1609 64.0865 64.75 55.5002 64.75Z" fill="#D9D9D9"/>
</svg>
