<svg width="84" height="62" viewBox="0 0 84 62" fill="none" xmlns="http://www.w3.org/2000/svg">
<path d="M7.85982 61.2463C5.29847 61.2463 3.34817 60.6018 2.0089 59.3128C0.669634 58.0237 3.33413e-07 56.1488 3.33413e-07 53.6879V26.3668C3.33413e-07 23.9059 0.669634 22.0309 2.0089 20.7419C3.34817 19.4528 5.29847 18.8083 7.85982 18.8083H16.3223C18.8669 18.8083 20.8172 19.4528 22.1732 20.7419C23.5292 22.0309 24.2072 23.9059 24.2072 26.3668V53.6879C24.2072 56.1488 23.5292 58.0237 22.1732 59.3128C20.8172 60.6018 18.8669 61.2463 16.3223 61.2463H7.85982ZM8.7136 56.1739H15.4936C16.6822 56.1739 17.536 55.9144 18.055 55.3954C18.574 54.8764 18.8334 54.0394 18.8334 52.8843V27.1704C18.8334 25.9985 18.574 25.1615 18.055 24.6592C17.536 24.1403 16.6822 23.8808 15.4936 23.8808H8.7136C7.525 23.8808 6.67122 24.1403 6.15226 24.6592C5.63329 25.1615 5.37381 25.9985 5.37381 27.1704V52.8843C5.37381 54.0394 5.63329 54.8764 6.15226 55.3954C6.67122 55.9144 7.525 56.1739 8.7136 56.1739ZM37.466 61.2463C34.9214 61.2463 32.9794 60.6018 31.6402 59.3128C30.3009 58.0237 29.6313 56.1488 29.6313 53.6879V16.9752C29.6313 14.5143 30.3009 12.6393 31.6402 11.3503C32.9794 10.0612 34.9214 9.41672 37.466 9.41672H45.9536C48.4982 9.41672 50.4485 10.0612 51.8045 11.3503C53.1605 12.6393 53.8385 14.5143 53.8385 16.9752V53.6879C53.8385 56.1488 53.1605 58.0237 51.8045 59.3128C50.4485 60.6018 48.4982 61.2463 45.9536 61.2463H37.466ZM38.3449 56.1739H45.1249C46.3135 56.1739 47.1673 55.9144 47.6863 55.3954C48.2052 54.8764 48.4647 54.0394 48.4647 52.8843V17.7788C48.4647 16.6069 48.2052 15.7615 47.6863 15.2425C47.1673 14.7236 46.3135 14.4641 45.1249 14.4641H38.3449C37.1563 14.4641 36.3025 14.7236 35.7835 15.2425C35.2646 15.7615 35.0051 16.6069 35.0051 17.7788V52.8843C35.0051 54.0394 35.2646 54.8764 35.7835 55.3954C36.3025 55.9144 37.1563 56.1739 38.3449 56.1739ZM67.1224 61.2463C64.561 61.2463 62.6107 60.6018 61.2714 59.3128C59.9322 58.0237 59.2625 56.1488 59.2625 53.6879V7.53338C59.2625 5.07247 59.9322 3.20587 61.2714 1.93357C62.6107 0.644523 64.561 6.1281e-07 67.1224 6.1281e-07H75.5849C78.1462 6.1281e-07 80.0965 0.644523 81.4358 1.93357C82.7918 3.20587 83.4698 5.07247 83.4698 7.53338V53.6879C83.4698 56.1488 82.7918 58.0237 81.4358 59.3128C80.0965 60.6018 78.1462 61.2463 75.5849 61.2463H67.1224ZM67.951 56.1739H74.7562C75.9448 56.1739 76.7986 55.9144 77.3175 55.3954C77.8365 54.8764 78.096 54.0394 78.096 52.8843V8.33694C78.096 7.16508 77.8365 6.32804 77.3175 5.82581C76.7986 5.30684 75.9448 5.04736 74.7562 5.04736H67.951C66.7792 5.04736 65.9338 5.30684 65.4148 5.82581C64.8958 6.32804 64.6364 7.16508 64.6364 8.33694V52.8843C64.6364 54.0394 64.8958 54.8764 65.4148 55.3954C65.9338 55.9144 66.7792 56.1739 67.951 56.1739Z" fill="#D9D9D9"/>
</svg>
