<svg width="93" height="93" viewBox="0 0 93 93" fill="none" xmlns="http://www.w3.org/2000/svg">
<path fill-rule="evenodd" clip-rule="evenodd" d="M5.8125 37.7812C5.8125 49.2318 11.6182 59.2762 20.3438 64.9223V57.6207C15.0308 52.8565 11.625 45.7874 11.625 37.7812C11.625 23.1351 23.0227 11.625 36.6428 11.625C48.1969 11.625 58.1516 19.9079 60.9059 31.3618L60.9146 31.3582C61.3036 32.9474 61.5516 34.595 61.644 36.2859C63.4548 35.3783 65.4696 34.875 67.5683 34.875C74.9967 34.875 81.375 41.1804 81.375 49.4062C81.375 55.66 77.6883 60.8038 72.6562 62.9107V69.0591C81.0251 66.7354 87.1875 58.817 87.1875 49.4062C87.1875 38.1707 78.4037 29.0625 67.5683 29.0625C67.1502 29.0625 66.7352 29.0761 66.3236 29.1028C62.6764 15.664 50.7691 5.8125 36.6428 5.8125C19.6157 5.8125 5.8125 20.1254 5.8125 37.7812ZM50.1516 71.2626L52.3125 69.75L50.1516 68.2374L50.6101 65.6399L48.0126 66.0984L46.5 63.9375L44.9874 66.0984L42.3899 65.6399L42.8484 68.2374L40.6875 69.75L42.8484 71.2626L42.3899 73.8601L44.9874 73.4016L46.5 75.5625L48.0126 73.4016L50.6101 73.8601L50.1516 71.2626ZM43.0951 58.125L40.9343 59.6376L41.3927 62.2351L38.7952 61.7766L37.2826 63.9375L35.7701 61.7766L33.1726 62.2351L33.631 59.6376L31.4701 58.125L33.631 56.6124L33.1726 54.0149L35.7701 54.4734L37.2826 52.3125L38.7952 54.4734L41.3927 54.0149L40.9343 56.6124L43.0951 58.125ZM40.9343 82.8876L43.0951 81.375L40.9343 79.8624L41.3927 77.2649L38.7952 77.7234L37.2826 75.5625L35.7701 77.7234L33.1726 77.2649L33.631 79.8624L31.4701 81.375L33.631 82.8876L33.1726 85.4851L35.7701 85.0266L37.2826 87.1875L38.7952 85.0266L41.3927 85.4851L40.9343 82.8876ZM69.75 69.75L67.5891 71.2626L68.0476 73.8601L65.4501 73.4016L63.9375 75.5625L62.4249 73.4016L59.8274 73.8601L60.2859 71.2626L58.125 69.75L60.2859 68.2374L59.8274 65.6399L62.4249 66.0984L63.9375 63.9375L65.4501 66.0984L68.0476 65.6399L67.5891 68.2374L69.75 69.75ZM58.3718 59.6376L60.5326 58.125L58.3718 56.6124L58.8302 54.0149L56.2327 54.4734L54.7201 52.3125L53.2076 54.4734L50.6101 54.0149L51.0685 56.6124L48.9076 58.125L51.0685 59.6376L50.6101 62.2351L53.2076 61.7766L54.7201 63.9375L56.2327 61.7766L58.8302 62.2351L58.3718 59.6376ZM60.5326 81.375L58.3718 82.8876L58.8302 85.4851L56.2327 85.0266L54.7201 87.1875L53.2076 85.0266L50.6101 85.4851L51.0685 82.8876L48.9076 81.375L51.0685 79.8624L50.6101 77.2649L53.2076 77.7234L54.7201 75.5625L56.2327 77.7234L58.8302 77.2649L58.3718 79.8624L60.5326 81.375ZM32.2155 71.2626L34.3764 69.75L32.2155 68.2374L32.6739 65.6399L30.0764 66.0984L28.5639 63.9375L27.0513 66.0984L24.4538 65.6399L24.9122 68.2374L22.7514 69.75L24.9122 71.2626L24.4538 73.8601L27.0513 73.4016L28.5639 75.5625L30.0764 73.4016L32.6739 73.8601L32.2155 71.2626Z" fill="#D9D9D9"/>
</svg>
